<?xml version="1.0" encoding="UTF-8" standalone="no"?>
<!DOCTYPE svg PUBLIC "-//W3C//DTD SVG 1.1//EN" "http://www.w3.org/Graphics/SVG/1.1/DTD/svg11.dtd">
<svg width="100%" height="100%" viewBox="0 0 24 24" version="1.1" xmlns="http://www.w3.org/2000/svg" xmlns:xlink="http://www.w3.org/1999/xlink" xml:space="preserve" xmlns:serif="http://www.serif.com/" style="fill-rule:evenodd;clip-rule:evenodd;stroke-linejoin:round;stroke-miterlimit:2;">
    <rect id="Artboard1" x="0" y="0" width="24" height="24" style="fill:none;"/>
    <g id="Artboard11" serif:id="Artboard1">
        <g transform="matrix(1,0,0,1,-1358.4,-575.489)">
            <path d="M1361.67,592.213L1359.25,590.905C1359.25,590.905 1369.96,587.365 1372.54,581.947C1373.39,580.156 1372.64,579.317 1374.35,578.311C1375.7,577.513 1377.37,578.087 1378.4,579.446C1378.62,579.74 1382.27,579.158 1382.27,579.158L1379.11,582.271C1379.11,582.271 1380.71,584.474 1380.13,587.439C1378.99,593.321 1373.44,592.127 1373.52,592.463C1373.92,594.185 1375.92,596.389 1376.34,597.233C1376.38,597.318 1375.09,596.813 1373.87,595.592C1372.98,594.703 1372.06,593 1372.06,593C1372.06,593 1368.8,594.006 1374.26,597.995C1375.15,598.646 1372.27,597.931 1370.19,595.752C1369.08,594.583 1369.85,592.556 1370.84,592.574C1371.19,592.581 1363.94,592.804 1363.94,592.804L1365.89,590.72C1365.89,590.72 1362.27,591.838 1361.67,592.213Z"/>
        </g>
    </g>
</svg>
