<svg viewBox="0 0 24 24" xmlns="http://www.w3.org/2000/svg">
    <path d="M18.7 3.3C15.7 3 8.5 3.2 5.3 3c-1.8-.1-2.2-.4-2.3-.5 0 0 0-.8.1-.7.1 0 13 .4 16.5.8l2.2-1.5a1 1 0 0 1 1 0c.2.4 0 .8-.2 1-1.6 1.3-3.8 2.6-5.2 4-1.6 1.4-3 2.6-4.6 4.2.7.4 3.4 2 5.6 4 1.1 1.2.5 2-.1 2.5s-1.4.7-2.5-.2c-.2-.2-2-2.4-5-4.5l-2.7 2.8a63 63 0 0 0-2.8 3.3c.6 0 13-.3 13.7-.1l-.2.6c-.7-.2-13.2.2-13.9.2-1 1.4-1.8 3.8-2.5 3.8-.6 0-.9-.5-.8-.8 0-.4.4-1.2 1.3-2.6l.3-.5h-.4l.2-.6h.6a33.5 33.5 0 0 1 5.9-6.8C7.4 9.8 3.9 7.3 3 5c-.2-.4-.1-.7.2-.9.3-.2.7 0 1 .3C7 7.7 9.4 8.7 11.3 9.5l4.9-4.3 2.4-1.9ZM2 3.1s.7-.4.7-.1c-.1.7-.1 13.5-.3 15 0 .4-1.1 0-1.1-.8.2-7.8.6-13.4.7-14.1Zm18.7 1.2 1.3-.8s.1 10.4-.9 14.5c0 0-1.6.5-1.5.3.7-3.1 1-13.6 1.1-14Z"/>
</svg>
