<svg viewBox="0 0 24 24" xmlns="http://www.w3.org/2000/svg">
    <path d="M14.8 8.2s-.6.8-.7 2.5c-.3 3.5 1.2 5.4 3.3 12.1 0 .3-.9.1-1 0-.9-1.7-3.6-7.3-4.4-8.1 0-.2-1.4 3.9-4.6 8.3-.2.3-.8 0-1-.1-.5-.2 1.8-2.7 3-8.6.8-4.4.9-6.9.9-6.9 0-.2-1 .7-1.3 1.4l-1.4 3c0 .3-.8 0-.8-.3 0-.6 1-3 1.3-3.5.3-.5 1.3-2.2 3-2.9l1.7-.4v-.5s-.6-.4-.5-1.6c.1-1.3.9-1.7 1.9-1.6.6.1 1.2.9 1 1.9-.4 2-1.2 1.6-1.2 1.6V5c0 .4 1.4 1 1.7 1.6.6 1 .6 3 1 3.8.2.6 1 1.6 1.2 2.2 0 .2-.3.6-.4.5-.4-.3-1.4-.9-1.9-2-.3-.7-.6-2.4-.8-2.9Z"/>
</svg>
