<svg viewBox="0 0 24 24" xmlns="http://www.w3.org/2000/svg">
    <path d="M1.7 15.7c-1.2-1 1.2-3.4 2.5-4.5.8-.7 2.2 1.6 3.2.6l1-1c-1.5-4.7-3.6 1-4.5-.8-.8-1.6 3-3.8 4.4-2 .7 1 1.3 2 2 1 .4-.5-1.2-1.6-1.3-2.8-.2-1.2 4.6-3 5-2.4 1.8 2.3-5.8.7-1.9 3.8.1 0 2.7-2 4.6-2.3.5 0 .6-.9.4-1.6-.3-1.2-1-1.7-.2-2.2.6-.3 1.3 1 1.3 2.2 0 1.3-.6 2-.5 2 .2.2.3.5.5.5 0 0 1.4-.7 2.7-1 .8-.3 2.2.3 2 1-.4.6-1.3-.3-2.1 0-.4.3-1.6.4-1.7 1.1-.3 3-2.1 4.5-2.1 4.7 1 5 3-3 4-2.1 1.2 1-1 4.7-1.9 5.1-1.8.8-3.4-1.5-3.4-1.5l-1 1.4s2 1.1 2 2.2c.3 2-1.6 4.4-2.6 3.3-.7-.8 2.7-2.7-.6-4.5-.2 0-1.5 1.3-1.5 1.3s1.5 2 1 2.9c-.7 1.1-3.7 3.4-4.5 2.2-1-1.4 4.6-1.8 2-4-.2-.1-3.5.8-4.6-.3-1.2-1.1 0-4.3-.1-4.5-1.3-2.4-2.8 3.3-4.1 2.2Z"/>
</svg>
