<svg viewBox="0 0 24 24" xmlns="http://www.w3.org/2000/svg">
    <path d="M15 6.3c.4 0 2.5-1.9 3-1.9.3 0-1.1 1.9-.6 2 .3.2 2.5-1.2 2.8-1.1.4 0-1 1.4-.8 1.6.2.2 2.8-.2 3 0 .3.3-2 1-1.7 1.2.2.2 2.3.7 2.5 1 .2.3-1.5.1-1.5.5 0 .3 1.3 1.4 1.4 1.7 0 .4-1 .2-1.2.4 0 .3 1 1.8.8 2.2-.2.3-1.1-.4-1.2-.2-.2.2.7 1.4.4 1.7 0 .1-1.2-.3-1.4 0-.2.3.2 1.2 0 1.3-.7.2-1.2-.1-1.5.2-.7 1-1.1 1.5-1.4 1.7-.8.4-2.1.3-2.2-.1l-.1-1.4s-2.2.7-5.5.2c-.6 0-.8 1-2.4 1.1-.6.1-3.3.2-2.9-.3.7-.7.7-.4.9-1.3 0 0-3.6 0-4.3-1.5-.4-1 1.8-1.9 2.5-2.6 1.1-1.1 2.6-4.3 3.3-5 .4-.4.6 1 .8 1 .3-.1 1.6-2.6 2-2.8.4-.2.5 1.6.7 1.6.4-.1 1.3-2.3 1.7-2.4.3-.2.1 1.5.5 1.5s2-2 2.4-2c.3-.1-.4 1.7 0 1.7Z"/>
</svg>
