<svg viewBox="0 0 24 24" xmlns="http://www.w3.org/2000/svg">
    <path d="M22.6 10.3c0 3.7-1 3.8-1 6.4.2 4.7 1.5 3.2 1.7 4.6.3 1.6-2.2 2.7-3.6.1-1.6-3-.2-5.8-.2-5.8s-.7 1.3-1.3 1.8c-2 1.7-3.8.3-3.8.3-.7-.3-2 .7-2.7-.8-.2-.5 2.4-.9 1.2-2.5-.5-.2-1.8-.2-1.8-.2s-1.4 2.6-3 2.3c-1.2-.1-1.2-1.2-1.2-1.2s-1.7 1.7-2.6.4c-.5-.7.5-1.8.7-2.6.2-1.3.5-2.3 0-2.8-.3-.3-2-.3-3-.3S.5 8.2 1 7.7c.9-.8 1.3-2 1.3-2S.5 3.5 1 2.4c.3-.6 1.9-.5 2.7.6.2.2.4-.5 1-1.3s1.5-.5 1.7.2c.1.8.4 2.7.8 2.8 5 1 6.4-2.4 10.97-.8 2 .7 4.5 2.7 4.4 6.4Z"/>
</svg>
