<svg viewBox="0 0 24 24" xmlns="http://www.w3.org/2000/svg">
    <path d="M6.03 6.84c.14-.86 1.55-2.86 3.6-2.84 1.93.03 3.01 1.45 3.07 2.64.19 3.35-2.21 3.16-2.29 4.3-.05.8-.18 1.25-.99 1.32-.84.08-.71-.73-.7-1.48.03-1.39 2.37-2.08 2.45-3.24.05-.7-.32-1.64-1.2-1.9-.66-.2-2.2.3-2.3 1.55-.05.5-.2 1.67-.93 1.59-.68-.08-.9-.72-.71-1.94Zm3.39 6.35c.53 0 .93.37.9.88-.03.67-.36.97-.72 1.02-.45.06-.95-.25-1.02-.7-.12-.72.23-1.2.84-1.2Z"/>
    <path d="M19.33 9.81a9.5 9.5 0 0 1-1.83 5.62l5.8 5.8a1.47 1.47 0 0 1-2.08 2.07l-5.8-5.8a9.52 9.52 0 1 1 3.9-7.69Zm-9.6-7.24a7.26 7.26 0 1 0 0 14.53 7.26 7.26 0 0 0 0-14.53Z" />
</svg>
