<svg viewBox="0 0 24 24" xmlns="http://www.w3.org/2000/svg">
    <path d="M23.4 17c0-.3-1.7.8-3.9-.4-1.3-.8-1.8-1.7-2.2-4-.2-1.5-.3-2.3-1-3.5-1.3-2.5-2.8-3-4.1-3-3.2 0-4.9 2.7-7.2.4-.5-.5-.6-2.2-.7-2.4-.1-.1-.8 0-1 .2l.2 1.2c-.2 1.6-1.3.8-1.9 2.5-.1.4-.7.7-.8.8 0 .2 0 1 .2 1 .4.3 1.5 0 2.3 0 1.2-.1 2 1 3 1.6 0 0-.6.6-.8 1.2-.2.5.3 1.5 1 2.2.3.3 1.2.3 1.4-.2 0-.2-.8-1-.8-1.5 0-.3.4-1 .7-.5 1.4 1.5 3.4 3 6.2 4.3l-3.5-.9c-2-.4-3 1.2-3 1.8 0 .1 1.4-.2 3 0 2.2 0 5 .5 5.2.1.7-1.1-.7-4.8-.3-4 1 2.1 2.2 4.4 5 4.5 1.7 0 2.9-.6 3-1.4Z"/>
</svg>
