<svg viewBox="0 0 26 26" xmlns="http://www.w3.org/2000/svg" xmlns:xlink="http://www.w3.org/1999/xlink">
    <defs>
        <path id="tag" d="M16.7 9.4c.1-.2 3.2-2.8 3.8-2.8.2 0 0 2.3 0 3.2 0 0 .3.3.4.1 0 0 .7-1.8 1.2-2 .5-.1 1.1-.3 1.5.2 0 0-1 1.5-1.3 2.8 0 .1.7 1.1 1.2 1.5.1.2-.1 2.4-.8 2.7-.5.3-1.2.7-1.4.6-1.1-.4-3.3-1.7-3.2-1.4 0 .4 1.8 3.4 2.7 4.1 1 1 2.6 2.4 2.1 2.5a7 7 0 0 1-2.4-.4c-3.4-2-5.6-4.6-5.6-4.6s-1.4 2.4-1.5 4.7c0 .4-1.8.4-1.9.2-.5-1.2.8-4.9.8-4.9s-1.8-.1-3.6-1.3c-.3-.2-1.5 1.8-.3 3.6.8 1.1 1 .4 1.4 2 0 .2-2.2 1.3-3.5-1.3-.7-1.3-1.1-4.2-1.6-4.1-1 .1-2 4.4-2 5.4-.1.8-2 .7-2 0-.9-5 2.7-4.7 2-9-.1-.3-2.3-2.2 0-6.3C5.1.9 9 1.8 8.3 3.3 8 4 5.8 3.8 4.8 5 4 6.2 3.6 7.3 4.6 9c0 .1 1.3-2.7 3.6-2.6 3.3.2 2.5 1.6 3.7 1.7 1.3.2 1.1-1 3-.9 1.7.1 1.6 2.7 1.8 2.2Z"/>
    </defs>
    <use
        stroke="#F0F0F0"
        stroke-width="2"
        fill="none"
        xlink:href="#tag"
        transform="translate(1 1)"
    />
    <use fill="black"
         xlink:href="#tag"
         transform="translate(1 1)"
    />
</svg>
