<svg viewBox="0 0 26 26" xmlns="http://www.w3.org/2000/svg" xmlns:xlink="http://www.w3.org/1999/xlink">
    <defs>
        <path id="tag" d="M2.5 10.8c-.4-1.5 0-3.7 1.7-4.4.6-.3 1.3 0 1.8-.5 2.2-1.8 2.2-2.4 4.6-3.5C14 1 21.9.7 23.2 6.8c1.5 7-3.6 6.6-4.4 9.3-.3 1.4 1.4 3.4 2 4.8.3.5-1.6-1.1-2.9-1-1 .2-3.7 2.4-3.8 2.2-.2-1.3 3.4-2.4 3.5-3.7.3-3.2-2.3-3-2.8-2.3-.7.9-.9 2.9.6 4 .3.2-1.6-.8-2.3-.5-2.1 1-3.7 1-3.7.7 0-.5 4.2-1.1 4.1-3.6 0-4-3.5-5.9-5.8-5.2-1.9.6-2.8-.2-3.1 0-3.5 2.6-2.9 5.4-3.2 6-.6 1.3-1.2.2-.9-1.2.4-1.8.9-3.9 2-5.5Z"/>
    </defs>
    <use
        stroke="#F0F0F0"
        stroke-width="2"
        fill="none"
        xlink:href="#tag"
        transform="translate(1 1)"
    />
    <use fill="black"
         xlink:href="#tag"
         transform="translate(1 1)"
    />
</svg>
