<svg viewBox="0 0 26 26" xmlns="http://www.w3.org/2000/svg" xmlns:xlink="http://www.w3.org/1999/xlink">
      <defs>
            <path id="tag" d="M18 6.7a37.6 37.6 0 0 1 1.5 2.4c1.2.1 1.9.3 2.2 1.7 0 .3.5.6.4 1-.1.2-1.2 1-3.3 1 1 .6 1.4 1 2.3 1.4.6.3 2.3.8 2.2 1 0 .2-.6.8-4.7-1-.1-.1 1 1.2 2.1 2l2.7 2c-.3.6-3.2-1.3-3.5-1.6-1-.8-3-1.8-4.4-2.2-2.2-.5-5.2-1-7.5.8-2.5 2-3.9 2.8-4.9 3.1l-1 .2c-.4.1-1-.2-1.2-.9 0-.5.4-.9 1.3-.5.4.2.8.3 1.4-.2 2-2 2.7-3.5 2.3-3.3-1.2.4-2.7 1.6-4.3 1.4-.8 0-1-.6-.7-1 .4-.3.4-.3 1.2 0 .3 0 .8 0 1.5-.5 1.6-1 1.9-1.7 1.9-1.7-1.3 0-1.5-1.1-1.3-1.6.2-.3.4-1 1-1.2.5-.2.7 2 1.9 1.6 3.4-2 6.5-1 10 .5.8-.1.9-.6.9-1-2.1-.8-2-.2-4-1-1-.4-1.5-1.1-1.3-1.3.8-.6 2.8-.2 3.6.2.7.3 1.3.8 2 1.2.3.1-.3-.8-1.6-1.9-.6-.5-1.1-1-.7-1.2.3-.1 1-.3 2 .6Z"/>
      </defs>
      <use
            stroke="#F0F0F0"
            stroke-width="2"
            fill="none"
            xlink:href="#tag"
            transform="translate(1 1)"
      />
      <use fill="black"
           xlink:href="#tag"
           transform="translate(1 1)"
      />
</svg>
