<svg viewBox="0 0 26 26" xmlns="http://www.w3.org/2000/svg" xmlns:xlink="http://www.w3.org/1999/xlink">
    <defs>
        <path id="tag" d="M23.2 4.1c.2.7.1 1.6 0 2-.2.8-1.5 1.2-1.5 1.7.4 7.8-1 4.2-.7 8.8 0 .3.8.6 1 1V19s-1.7.1-2.2-.2c-.3-.1-.7-.4-1-1-.3-.6-.6-1.2-.6-2.2 0-.1-4-1-4.2-.8-.6.8 1.4 1.3 1.6 4.2 0 0-3.2.2-5.7 0-.7-.2-1.4-1.7-1.4-1.6-2.3 2.6-6.8 2-7.7-1-.2-.7.2-1.1.2-1 .3.7 5.2 5.2 7-1.5.4-1.7 1-4 3.9-5 2-.6 3 .1 4.7 1 1.5.9 1.9-.1 1.9-.4.2-3.2 0-3.5 1.1-4.5 1.4-1.2 3.5-1 3.6-.9Z"/>
    </defs>
    <use
        stroke="#F0F0F0"
        stroke-width="2"
        fill="none"
        xlink:href="#tag"
        transform="translate(1 1)"
    />
    <use fill="black"
         xlink:href="#tag"
         transform="translate(1 1)"
    />
</svg>
