<svg viewBox="0 0 26 26" xmlns="http://www.w3.org/2000/svg" xmlns:xlink="http://www.w3.org/1999/xlink">
    <defs>
        <path id="tag" d="M3.5 13.6C-.8 15 1.4 11.2 2 10.3c.5-1 1-1.3 1.7-2-.2-1.6 0-3.3 2.7-1.7 4-2.3 8.3-2.8 12-.6 2 1.1 3.4 3 3.4 5.2 2.1 1.4 1.3 4.6 0 5.7-1.2 1-2.3 1.1-4.6 1.3-2 0-6 .2-6.3 1.4-.2 1.6 2.5 1.1 3.2 1.3.3.1.2.6-.2.6-2.2.2-4.4 0-4.1-2.1.2-2 3.6-2 6.9-2.2 2.5-.2 3.6-.4 4.4-1.2.6-.7.7-2 0-2.6-3.7 4.5-8.7.6-10.7 0-.5.2-.8 1.3-2.7 1.3-.3 0 .8-1.5.6-1.6-1.6-.7-4 .3-4.7.5Z"/>
    </defs>
    <use
        stroke="#F0F0F0"
        stroke-width="2"
        fill="none"
        xlink:href="#tag"
        transform="translate(1 1)"
    />
    <use fill="black"
         xlink:href="#tag"
         transform="translate(1 1)"
    />
</svg>
