<svg viewBox="0 0 26 26" xmlns="http://www.w3.org/2000/svg" xmlns:xlink="http://www.w3.org/1999/xlink">
    <defs>
        <path id="tag" d="M.3 17.7S2.6 6.8 6.5 5.6c2.3-.7 10-.3 10.8.6a29 29 0 0 1 2.4 7.2c0 .5 2.3.6 2.7 2.2.4 1.5 0 3.2 0 3.2l-2.9-.1s0-3-3.2-2.9C13.3 16 13 19 13 19l-3.4-.1s-.2-2.8-3.3-3C3.6 15.8 3 18.7 3 18.7l-2.7-1ZM11 7.2s-3.9 0-4.4.3c-.3.1-2.3 4-2.1 4.3 0 .2 6.3.8 6.3.8l.2-5.4Zm1.3 5.5 5.8.5c.1 0-.6-4-1.8-5.5-.2-.2-3.8-.5-3.8-.5l-.2 5.5Zm-6 4.5c1 0 1.9.8 1.9 1.8s-.8 1.8-1.9 1.8c-1 0-1.8-.8-1.8-1.8s.8-1.8 1.8-1.8Zm10.2-.4c1 0 1.9.9 1.9 1.9 0 1-.8 1.8-1.9 1.8-1 0-1.8-.9-1.8-1.8 0-1 .8-1.9 1.8-1.9Z"/>
    </defs>
    <use
        stroke="#F0F0F0"
        stroke-width="2"
        fill="none"
        xlink:href="#tag"
        transform="translate(1 1)"
    />
    <use fill="black"
         xlink:href="#tag"
         transform="translate(1 1)"
    />
</svg>
