<svg xmlns="http://www.w3.org/2000/svg" viewBox="0 0 252 56"
      xml:space="preserve" xmlns:xlink="http://www.w3.org/1999/xlink">
    <defs>
        <path id="logo"
           d="M92.2 10.4c-3.6 0-7.7 1.2-7.7 4.3.1 1.2.5 2.4 1.3 3.4 0-3.1 2.8-4.4 6.3-4.4 3.6 0 4.3 1.4 4.3 3.1-1.4 3.5-12 1.3-12.4 8.5-1.7 2.8-8.3 2.9-12.1 2.9-4.2 0-7.2-1.6-7.2-6.6v-9.1c0-5 3-6.5 7.2-6.5s9.3 1.4 9.8 4.9c.6-.9.9-1.9.9-2.9 0-4-5.3-5.6-10.8-5.6-6.1 0-11.6 2.5-11.6 9.6v10.3c0 7 5.4 9.5 11.6 9.5 4.4 0 11.1-.3 13.1-2.8 1.4 2.1 4.1 2.8 6.9 2.8 2.3 0 4.1-.7 6-.7 1 0 2 .2 2.9.6V17.1c0-4.2-3-6.7-8.5-6.7zm4.4 17.3c-1.3.6-2.8.9-4.2.9-2.9 0-4.2-1.2-4.2-3 0-4.2 7.6-2.7 8.4-5.1v7.2zm35.7-17.3c-6.2 0-9.2 2.5-9.2 6.7v8.6a21.6 21.6 0 0 1-10 2.6c-3.5 0-5-1.4-5-4.2V18c0-3.1 1.7-4.2 5.1-4.2 2.7 0 5.4 1.4 5.4 4.5.8-1 1.3-2.2 1.3-3.5 0-3.1-3.9-4.4-7.3-4.4-5.4 0-8.7 2.5-8.7 6.7v7.8c0 4.3 3.4 6.7 8.8 6.7 3.3 0 9.2-1 11.6-2.9 1.4 1.8 4 2.9 8 2.9 6.3 0 9.2-2.5 9.2-6.7v-7.8c0-4.2-2.9-6.7-9.2-6.7zm5 14c0 2.6-.8 4.1-5 4.1s-4.9-1.6-4.9-4.2v-6.6c0-2.6.8-4.1 4.9-4.1s5 1.5 5 4.1v6.7zm11.6 14.1v2.6c-.1 0-4.2.1-4.2-2.7V10.5c.8.4 1.7.6 2.6.6 1.9 0 3.7-.7 5.7-.7 5.6 0 8.8 2.4 8.8 6.7v8c0 4.1-3.5 6.6-7.5 6.6s-5.7-1.9-5.7-1.9c.3 1 .4 2 .4 3v5.7zm0-13.6c0 2.1 2.4 3.6 4.8 3.6 2.2 0 3.9-1.2 3.9-4v-6.8c0-2.7-1.1-4-4.8-4-1.3 0-2.6.2-3.9.7v10.5zm21.1 6.6s-4.2 0-4.2-2.3V1c.4 0 4.2-.1 4.2 2.7v5.6c0 1-.1 2.1-.4 3 0 0 1.6-1.9 5.7-1.9 4 0 7.6 2.3 7.6 6.6v14.5s-4.3 0-4.3-2.3V17.6c0-2.8-1.6-4-3.9-4-2.4 0-4.8 1.5-4.8 3.6l.1 14.3zm34.5-6.5c0 4.2-2.9 6.7-9.2 6.7-6.3 0-9.1-2.5-9.1-6.7v-7.8c0-4.2 2.9-6.7 9.1-6.7 6.2 0 9.2 2.5 9.2 6.7V25zm-4.2-7.2c0-2.6-.8-4.1-5-4.1s-4.9 1.6-4.9 4.1v6.6c0 2.6.9 4.1 4.9 4.1 4.1 0 5-1.5 5-4.1v-6.6zm20.9-.5c0-2.3-1.2-3.6-4.4-3.6-1.5 0-2.9.2-4.3.7v17.1s-4.2 0-4.2-2.3V10.5c1 .5 2 .8 3.1.8 2 0 3.8-.9 6-.9 3.9 0 8 1.3 8 6.3v14.8s-4.2-.1-4.2-2.3V17.3zm9.1 1.2-.8-7.9s3.3 0 4 1.8c.6 2.2 1 4.5 1.2 6.9.3 2.8 1.8 5.5 4 7.3a11 11 0 0 0 4-7.3l.7-5.2c.4-3.5 3.9-3.5 4.5-3.5l-.9 7.9c-.5 4.3-2.7 8.2-6.1 10.9l-1.6 1.2c-2.6 2.1-4.7 3.7-4.7 6.4 0 1.2.3 2.5.9 3.6-.5.2-1 .4-1.5.4-1.5 0-3.5-1-3.5-4.3 0-3.6 2.6-5.8 5.6-8-2.4-1.3-5.3-5.3-5.8-10.2z"
        />
    </defs>
    <use
        stroke="#F0F0F0"
        stroke-width="2"
        fill="none"
        xlink:href="#logo"
        transform="translate(0 8)"
    />
    <use fill="black"
         xlink:href="#logo"
         transform="translate(0 8)"
    />
    <path fill="#7ac143" d="M47.8 12.6c.4-2-1.6-4.7-1.6-4.7v.6l-1.3 3.8c-.5.9-.3 2 .4 2.7l.6-.3c.6-.3 1.5-.2 1.9-2.1zm-2.2 1.7c.6-1.4.9-3 .9-4.5l.2 1.8c-.1.9-.5 1.9-1.1 2.7zm-29.1 5.8c-1.8-5.4-9.2-8.7-9.2-8.7l.8 1.6c.5 1.2 2.4 11.3 2.4 11.3.8 5.2 4.3 5.8 4.3 5.8l.8-1.6c.9-1.7 2.7-3 .9-8.4zM14.4 28c-.3-4.7-4.1-12.4-4.1-12.4l2.6 3.9c1.2 2.7 1.8 5.6 1.5 8.5zm8.9-19.7c.7-1.1.2-3.2.2-3.2l-.9.9-1.1 1.2c-.5.5-.6 1.3-.3 1.9h.4c.7.2 1.4-.1 1.7-.8zm-1.8.5c.7-.7 1.2-1.6 1.4-2.5l-.2 1.1c-.2.6-.6 1-1.2 1.4zM6.2 24.2l1.1-.1c.4-1.6-.2-3.3-1.6-4.2 0 0-4.5-3.7-4.9-4.3l-.6-.9s-.6 5.5 1.6 7.9 3.3 1.7 4.4 1.6zm-3.7-3.9-1.2-2.6s2.6 4.2 4.9 5.7a8 8 0 0 1-3.7-3.1zM4 15.7l.6.3c.7-.7.9-1.8.4-2.7L3.7 9.5v-.7s-2 2.7-1.6 4.7 1.3 1.9 1.9 2.2zm-.7-3.2.2-1.8c0 1.5.3 3.1.9 4.5-.7-.7-1-1.7-1.1-2.7zm4.2-3.2.5.8a3 3 0 0 0 2.7-2.6s1.4-4.7 1.7-5.3l.4-.7S8.3 2.8 7.2 5.4s-.1 3.2.3 3.9zm1.8-4.1L11 3.4S8.6 6.9 8.3 9.2c-.1-1.5.3-2.8 1-4zm6.1-3.8-.7.6A3.3 3.3 0 0 0 18 4s4.9.1 5.5.3l.8.3S21.8.6 19.1.1s-3.2.7-3.7 1.3zm4.4.7L22 3.3s-4-1.5-6.3-1.2c1.3-.4 2.8-.4 4.1 0zm5.5 16c2-3.4-.1-9.7-.1-9.7l-.4 1.2c-.4.8-4.8 6.2-4.8 6.2a4.6 4.6 0 0 0-.9 5.3l1.3-.1c1.3-.1 2.9.5 4.9-2.9zM20 20c2.3-2.2 4.5-7.8 4.5-7.8l-.8 3.4c-.7 1.8-2 3.3-3.7 4.4zm3.1 13.4c1.5-3.1.3-9.6.3-9.6l-1.2 2.6a94 94 0 0 1-3.9 5.5 4 4 0 0 0-.4 4.7l1.2-.2c1.1-.4 2.5.1 4-3zm-4.4 2c1.6-2.1 3-4.5 4-6.9l-.8 3.3a6 6 0 0 1-3.2 3.6zm-7.5-5.1C9.2 28 1 25.6 1 25.6l.3.8c.9 3.8 1 4.8 4 7.1s6.9-.5 6.9-.5l-.2-.5c0-.8-.3-1.5-.8-2.2zM9 32.2a12.9 12.9 0 0 1-6.3-5.1l.6.8c2.1 2.1 4.6 3.6 7.4 4.5L9 32.2zm7.3 5c-.9-.2-1.8-.2-2.7-.2 0 0-3.8 0-5.5-1.6 0 0 2.4 8.5 11 6.5l1.5-.7a6 6 0 0 0-4.3-4zm2.8 3.5a6 6 0 0 0-3.7-1.2c-1.8 0-3.6-.6-5-1.8 1.1 1 4.5 1.3 4.5 1.3 3.5-.1 4.2 1.7 4.2 1.7zm2.5 9.2 1.7 1.7s2.5 2.3 2.7 4.4c0 0 3.5-7.2-3.5-11l-1.4-.5c-.8 1.8-.6 3.8.5 5.4zm.2-4c.2 1.2.9 2.2 1.8 3a6.6 6.6 0 0 1 2.3 4.2c-.1-1.3-2.3-3.6-2.3-3.6-2.4-2.1-1.7-3.6-1.8-3.6zM32 43.6l-1.1.4c-5.2 2.9-2.6 8.3-2.6 8.3.1-1.6 2-3.3 2-3.3a8 8 0 0 0 1.3-1.3c.8-1.2 1-2.8.4-4.1zm-.6 1s.5 1.2-1.4 2.8c0 0-1.6 1.7-1.7 2.7.2-1.2.8-2.4 1.7-3.2.8-.6 1.3-1.4 1.4-2.3zm-2.6-3.8c-.9-3-5.7-5.4-5.7-5.4l.4.9c.3.7 1 6.2 1 6.2 0 1.6 1 3 2.6 3.5l.7-.8c.5-.9 1.8-1.4 1-4.4zm-2 4c.1-2.6-2-7-2-7l1.5 2.3a7 7 0 0 1 .5 4.7z"/>
    <path fill="#7ac143"
          d="m38 27.7.8 1.6s3.5-.6 4.3-5.8c0 0 1.9-10.1 2.4-11.3l.8-1.6s-7.4 3.3-9.2 8.7.1 6.7.9 8.4zm2.7-9 2.7-3.9s-3.8 7.6-4.1 12.4c-.3-2.9.2-5.8 1.4-8.5zm-23-6.7 2.3.5s-.9-3.4-2.7-4.7l-2.2-1.9-1.8-1.5s-.4 4 1.2 5.7a4 4 0 0 0 3.2 1.9zm-2.5-3.6-.7-1.9s1.6 3.2 3.3 4.2c-1.1-.6-2-1.3-2.6-2.3zM31.5 10h.5a2 2 0 0 0-.4-2.3l-1.3-1.4-1.1-1.2s-.6 2.5.2 3.8c.4.8 1.3 1.3 2.1 1.1zm-1.3-2.1L30 6.6c.3 1.1.9 2.1 1.7 3-.7-.4-1.2-1-1.5-1.7zm.3 26.2h.5a2 2 0 0 0-.4-2.3l-1.3-1.4-1.1-1.2s-.6 2.5.2 3.8c.4.9 1.3 1.3 2.1 1.1zM29.2 32l-.3-1.3c.3 1.1.9 2.1 1.7 3a4 4 0 0 1-1.4-1.7zm21.4-9.3c2.2-2.4 1.6-7.9 1.6-7.9l-.6.9c-.4.6-5 4.3-5 4.3-1.4.9-2 2.6-1.6 4.2l1.1.1c1.1 0 2.3.8 4.5-1.6zm-4.6.6c2.3-1.4 5-5.6 5-5.6l-1.2 2.6a7 7 0 0 1-3.8 3zm-.9-17.9c-1.2-2.5-5.7-3.9-5.7-3.9l.6.7c.3.5 1.7 5.3 1.7 5.3a3 3 0 0 0 2.7 2.6l.5-.8c.4-.7 1.4-1.4.2-3.9zm-1 3.8c-.3-2.3-2.7-5.8-2.7-5.8L43 5.2a7.1 7.1 0 0 1 1.1 4zm-9.6-9c-2.8 0-6 3.4-6 3.4l.9-.1 5.5.8c1.4.4 2.8-.1 3.6-1.3l-.5-.8c-.6-.7-.7-1.9-3.5-2zm2.9 2.6c-2.2-.7-6.4-.1-6.4-.1l2.3-.7a7 7 0 0 1 4.1.8zm-3.3 16.5.9-.2a3 3 0 0 0-1.8-3.1l-4.5-2.8-.6-.6s.2 4.5 2.3 6.2c2 1.6 2.8.7 3.7.5zm-3.5-2.7-1.3-1.9s2.7 3.1 4.7 3.9c-1.3-.3-2.5-1-3.4-2zm10.3 15.9-.1.5s3.9 2.8 6.9.5c3-2.3 3.1-3.3 4-7.1l.3-.8s-8.2 2.5-10.2 4.8c-.4.6-.7 1.3-.9 2.1zm1.4-.1s4.8-1.5 7.4-4.5l.6-.8-.6.8c-1.1 1.3-3.3 3.7-5.7 4.3l-1.7.2zm-8.7 8.4 1.4.6c7.8 1.8 9.9-5.8 9.9-5.8C43.4 37 40 37 40 37c-.8-.1-1.6 0-2.4.2a5.4 5.4 0 0 0-4 3.6zm1.4-.5s.6-1.6 3.8-1.5c0 0 3.1-.2 4.1-1.2a7 7 0 0 1-4.6 1.6 5 5 0 0 0-3.3 1.1z"/>
    <path d="m40.8 33.4-.2-.4-.4-.7c-.4-.7-.7-1.4-1.2-2l-1.5-2.2-1.2-1.7-1-1.7-.4-.9-.1-.2.7-.2c.2-.1.3-.4.4-.6l-.2-.6-.2-.3c.2 0 .3-.1.4-.3v-.5c-.2-.4-.6-.7-1-.9l-.7-.6-.4-.3-1-.8-.2-.2-1.3-1.4-2.1-2.1v-.3h-.1l-1.8-.6a14.3 14.3 0 0 0-4.1-1.8 17 17 0 0 0-2.4-.5l-2.1-.6c-.5-.2-1-.5-1.4-.9L16.1 9l-1.5-.9-1.4-.5h-1.4l-1.4.1-.9.3H8.1l-1.5-.1-1 .1c-.1.3.2.5.2.5l.7.4h.2l.9.4c.4.2.8.5 1.1.9l.3.4.3.5v.3l-.6.6-1.6 1c-.2.2-1 .7-1.2 1v.3c.1.2.5.1.8 0l.3-.2 1-.3h.5l.2.3.4.5 1.2 1c.3.3.5.7.5 1.2v.2c.1.8.3 1.6.7 2.3l1.4 1.7 1.8 1.6 1.8 1.4 1.7 1.4.8.6-.3.2-1 .4-1.3.5-.9.5-.2.1-1.2-.6c-.3-.2-.8-.3-1.2-.2l-.2.2c-.1.4.4.9.9 1.2l.7.5-.1.9V31c0 .4.2.8.5 1h.9c.3-.2.5-.4.5-.7V31l.4.5.4-.1.5-.8.2.1 1.1.6 1.3.6a6 6 0 0 0 1.9.6l.2.1.2.4v.2c.1.4.4.8.7 1.2l1.1.4h.4v-.1h.3c.3-.1.5-.4.5-.7.3 0 .7.2.9.4 1 .9 1.9 1.9 2.6 3l1.9 2.6h.2l.1-.1c.1-.1.2-.2-.4-1.4l-1.2-2.2v-.1c.4-.2.9-.4 1.4-.3h.4c1.7 0 1.8-.2 1.8-.3v-.2c-.2-.2-1.2-.4-1.7-.4-.9-.1-2-.2-2.5-.4-.7-.2-1.4-.5-2.1-1l-1.4-1-.3-.9.1-1.5.7-2.3.7-2.2.2-.4.4.1.6.1c.5.1 1.1.3 1.6.6.5.2 1.1.5 1.5.9l1.3 1.5.2.3 1.6 2.5a33 33 0 0 0 3.7 4.5l1.2.2h1l.7-.2.4-.2c.3-.1.4-.6.4-1l-.5-1.2zm-16.2-6-.7 2.2-.7 1.4c-.2.3-.5.4-.9.5a3 3 0 0 1-1.3-.3l-1.6-.7-1.6-.9-1-.8v-.5l.7-.4 1.4-.6 1.8-.6a7 7 0 0 0 1.3-.5l.7-.6.8-.4.9.2c.3.1.5.3.5.4 0 .7-.1 1.2-.3 1.6z"
          style="fill:#010101"/>
    <path fill="#fff"
          d="M12.7 7.8h.2l1.4.5 1.5.9 1.2 1.1c.4.4.9.7 1.4.9l2.1.6 2.4.5a11.8 11.8 0 0 1 4.1 1.9l1.7.7h.2v.1l2.3 2.1 1.3 1.4.2.2 1 .8.4.3.7.6.8.9v.5l-.4.3.2.3.2.6c0 .3-.1.5-.4.6l-.7.2h-.1l.1.2.4.9 1 1.7 1.2 1.7c.4.4 1 1.4 1.5 2.2l1.2 2 .4.7.2.4.2 1.2c0 .3-.1.9-.4 1l-.4.2-.3.1h-1.1a5 5 0 0 1-1.2-.2c-.6-.4-1.1-.9-1.5-1.5l-2.2-3a32 32 0 0 1-1.6-2.5l-.2-.3c-.3-.6-.7-1.1-1.2-1.6l-1.5-.9-1.6-.6-.6-.1-.4-.1-.2.4-.7 2.1-.7 2.3c-.1.5-.2 1-.1 1.5 0 .3.2.6.3.8l1.4 1c.6.4 1.3.7 2.1 1l2.5.4c.6 0 1.2.1 1.7.4v.2c0 .1-.1.4-1.8.4h-.4c-.5-.1-1 .1-1.4.3-.1.1 0 0 0 .1l1.2 2.2c.6 1.3.5 1.4.4 1.4l-.1.1h-.2c-.7-.8-1.3-1.7-1.8-2.6-.7-1.1-1.6-2.1-2.6-3l-.9-.4c0 .3-.2.6-.5.7h-.3v.1h-.4c-.4 0-.8-.2-1.1-.4-.3-.3-.6-.7-.7-1.2V33l-.2-.4-1.8-.7-1.3-.5-1.1-.6-.2-.1-.5.8-.3.1h-.2c-.2-.1-.4-.3-.4-.5v.3l-.5.7-.5.1-.4-.1c-.3-.2-.5-.6-.5-1v-1.4l.1-.9-.7-.5c-.5-.3-1-.8-.9-1.2l.2-.3h.2l.9.3 1.2.6.2-.1.9-.5 1.3-.5 1-.4.3-.2-.8-.6-1.7-1.4-1.8-1.4a9.8 9.8 0 0 1-1.8-1.7l-1.4-1.7c-.4-.7-.7-1.4-.8-2.2v-.2a2 2 0 0 0-.5-1.2l-1.2-1-.4-.5-.2-.3h-.4l-1 .3-.2.1h-.5l-.4-.1v-.3c.3-.4.7-.7 1.2-.9l1.6-1c.2-.1.5-.3.6-.6V11l-.3-.5-.3-.4-1.1-.8-1-.3h-.1l-.7-.4s-.3-.2-.2-.4l1-.1c.5-.1 1 0 1.5.2h.5l.9-.1.9-.3 1.4-.1h1m9.6 23.8c.4 0 .7-.2.9-.5l.7-1.4.7-2.2c.2-.5.3-.9.3-1.4 0-.1-.2-.3-.5-.4l-.9-.2-.8.4-.7.5-1.3.5-1.8.6-1.4.5-.7.4v.5l1 .8 1.6.9 1.6.7c.4.2.8.3 1.3.3M12.7 6.8h-1.2l-1.4.2-1.1.3h-.8L6.4 7c-.8 0-1.5 0-1.9.6v.1c-.2.4-.2.8 0 1.2l.4.4L6 10h.2l.8.3.6.5.2.2-1.4 1c-1.2.8-1.4 1.2-1.4 1.4-.2.5-.1 1 .2 1.4.3.3.7.5 1.2.5l.7-.1h.2L8 15l.3.3 1.3 1.2.1.4v.3c.1 1 .4 1.9.9 2.7l1.4 1.9 2 1.7 1.6 1.4 1.2 1.1-.8.3-.7.4-.6-.4c-.4-.2-.9-.4-1.4-.4l-.7.1c-.4.2-.7.5-.8.9-.1 1 .4 1.9 1.3 2.3V31c0 .8.4 1.6 1.2 2 .6.3 1.3.2 1.9-.1l.4-.3h.1c.4 0 .8-.2 1.1-.5V32l.5.2 1.2.5 1.6.6v.1c.2.6.6 1.2 1.1 1.7.5.4 1.1.6 1.8.6h1.4v-.3l.2-.2a15 15 0 0 1 2.3 2.7c1.7 2.6 2.1 2.8 2.3 2.9h.2l.7.2.5-.5.1-.1c.7-.7.3-1.5-.3-2.7l-.6-1.2h.2c1.4 0 2.5 0 2.8-1.1v-.8l-.2-.3c-.3-.4-.8-.7-2.4-.8l-2.4-.3a8 8 0 0 1-1.6-.8l-1.3-.9v-.2l.1-1.2.7-2.2.6-1.6 1.4.5 1.3.8 1 1.3.2.3.2.4 1.4 2.2 2.2 3.1c.5.7 1.2 1.3 1.9 1.8.5.2 1 .3 1.6.3h1.2c.4 0 .9-.1 1.2-.4h.1c.7-.3 1.1-1.1 1.1-1.8v-.1c0-.5-.1-1.1-.3-1.6l-.2-.6v-.1l-.3-.6-1.2-2.1-1.6-2.3-1.2-1.6-.9-1.5c.4-.3.7-.9.8-1.4v-.2l-.1-.6c.2-.4.2-1 0-1.4-.3-.5-.7-.9-1.2-1.3l-.6-.5-.2.1-.4-.3-.9-.8-.2-.2c-.3-.2-.9-.8-1.2-1.3l-1.9-2-.2-.9h-1.1L28 13l-2.2-1.2a19.5 19.5 0 0 0-4.7-1.3l-1.9-.5-1.2-.7-1.3-1.2-1.7-1a6 6 0 0 0-1.9-.6l-.4.3zm10.7 19.8.2-.1h.1l-.2.6-.7 2.2-.5 1.2h-.1l-.8-.2-1.5-.7-1.5-.9.4-.2.5-.2 1.7-.6c.5-.1 1.1-.3 1.6-.6.2 0 .5-.2.8-.5z"/>
    <path fill="#231f20"
          d="m30.9 6.6.7 1.9 1.6 4.3c-.3 0-.7 0-1 .2a2 2 0 0 0-1.5 2.4c.6 1.1 2 1.4 3.1.8.8-.5 1.2-1.3 1.1-2.2l-2.2-6 4.5-3 1.5 4.1-1 .1a2 2 0 0 0-1.5 2.4 2 2 0 0 0 2.7.9 2 2 0 0 0 1.5-2.4l-2.1-5.8-.7-1.9-.1-.3-6.6 4.5z"/>
    <path fill="#fff"
          d="m37.4 2.2.1.3.7 1.9 2.1 5.8a2 2 0 0 1-1.5 2.4l-.9.2c-.8 0-1.5-.4-1.8-1.1-.2-1 .4-2.1 1.5-2.3l.9-.2h.1L37.2 5l-4.5 2.9 2.2 6c.2 1.2-.7 2.4-1.9 2.5-.9.1-1.8-.3-2.2-1.1-.3-1.1.4-2.1 1.5-2.4l.9-.2h.1l-1.6-4.3-.7-1.9 6.4-4.3m.4-1.3-.9.6-6.5 4.3-.6.4.2.6.7 1.9 1.2 3.3a2.8 2.8 0 0 0-2 3.4v.1l.1.1c.6 1 1.6 1.6 2.7 1.5a3 3 0 0 0 1.6-.5c1.1-.6 1.6-1.9 1.5-3.1v-.2l-2-5.3 3-1.9.7 2.1a3 3 0 0 0-2.1 3.5v.4c.5 1 1.5 1.6 2.6 1.6a5 5 0 0 0 1.2-.2 2.8 2.8 0 0 0 2-3.4l-2.1-5.8-.7-1.9-.2-.4-.4-1.1z"/>
</svg>
