<svg
        viewBox="0 0 529 529"
        width="529"
        height="528"
        xmlns="http://www.w3.org/2000/svg">
    <circle
            fill="#fff"
            cx="264"
            cy="264"
            r="264"/>
    <path
            fill="rgba(0, 0, 0, 0.75)"
            d="M 422.33776,281.85985 294.87802,409.31959 c -4.93907,5.01873 -11.47138,7.48826 -18.00369,7.48826 -6.53232,0 -13.0487,-2.48945 -18.01963,-7.46834 -9.95779,-9.95779 -9.95779,-26.08942 0,-36.04721 l 83.98004,-83.94419 H 98.430687 c -14.076335,0 -25.490674,-11.39172 -25.490674,-25.49195 0,-14.10024 11.414339,-25.49195 25.490674,-25.49195 H 342.83474 l -83.9641,-83.96411 c -9.9578,-9.95779 -9.9578,-26.08942 0,-36.04721 9.95779,-9.95779 26.08941,-9.95779 36.04721,0 l 127.45974,127.45975 c 9.91796,9.99762 9.91796,26.08941 -0.0398,36.04721 z"/>
</svg>
